<mxfile host="app.diagrams.net" agent="Mozilla/5.0 (Macintosh; Intel Mac OS X 10_15_7) AppleWebKit/537.36 (KHTML, like Gecko) Chrome/140.0.0.0 Safari/537.36" version="28.2.1">
  <diagram name="Page-1" id="y3aubZ1SRRScUaVL7wd2">
    <mxGraphModel dx="3112" dy="2631" grid="1" gridSize="10" guides="1" tooltips="1" connect="1" arrows="1" fold="1" page="1" pageScale="1" pageWidth="850" pageHeight="1100" math="0" shadow="0">
      <root>
        <mxCell id="0" />
        <mxCell id="1" parent="0" />
        <mxCell id="ZNKfg5EJm-rh3dqur-UU-32" style="edgeStyle=orthogonalEdgeStyle;rounded=0;orthogonalLoop=1;jettySize=auto;html=1;exitX=0;exitY=0.5;exitDx=0;exitDy=0;entryX=1;entryY=0.5;entryDx=0;entryDy=0;" edge="1" parent="1" source="ZNKfg5EJm-rh3dqur-UU-1" target="ZNKfg5EJm-rh3dqur-UU-7">
          <mxGeometry relative="1" as="geometry" />
        </mxCell>
        <mxCell id="ZNKfg5EJm-rh3dqur-UU-35" style="edgeStyle=orthogonalEdgeStyle;rounded=0;orthogonalLoop=1;jettySize=auto;html=1;exitX=0;exitY=0.5;exitDx=0;exitDy=0;entryX=1;entryY=0.5;entryDx=0;entryDy=0;" edge="1" parent="1" source="ZNKfg5EJm-rh3dqur-UU-1" target="ZNKfg5EJm-rh3dqur-UU-6">
          <mxGeometry relative="1" as="geometry" />
        </mxCell>
        <mxCell id="ZNKfg5EJm-rh3dqur-UU-36" style="edgeStyle=orthogonalEdgeStyle;rounded=0;orthogonalLoop=1;jettySize=auto;html=1;exitX=1;exitY=0.5;exitDx=0;exitDy=0;entryX=0;entryY=0.5;entryDx=0;entryDy=0;" edge="1" parent="1" source="ZNKfg5EJm-rh3dqur-UU-1" target="ZNKfg5EJm-rh3dqur-UU-2">
          <mxGeometry relative="1" as="geometry" />
        </mxCell>
        <mxCell id="ZNKfg5EJm-rh3dqur-UU-37" style="edgeStyle=orthogonalEdgeStyle;rounded=0;orthogonalLoop=1;jettySize=auto;html=1;exitX=1;exitY=0.5;exitDx=0;exitDy=0;entryX=0;entryY=0.5;entryDx=0;entryDy=0;" edge="1" parent="1" source="ZNKfg5EJm-rh3dqur-UU-1" target="ZNKfg5EJm-rh3dqur-UU-8">
          <mxGeometry relative="1" as="geometry" />
        </mxCell>
        <mxCell id="ZNKfg5EJm-rh3dqur-UU-1" value="&lt;meta charset=&quot;utf-8&quot;&gt;&lt;span style=&quot;color: rgba(0, 0, 0, 0.85); font-family: &amp;quot;YS Text&amp;quot;, sans-serif; font-size: 18px; font-style: normal; font-variant-ligatures: normal; font-variant-caps: normal; font-weight: 400; letter-spacing: normal; orphans: 2; text-align: start; text-indent: 0px; text-transform: none; widows: 2; word-spacing: 0px; -webkit-text-stroke-width: 0px; white-space: pre-wrap; background-color: rgb(255, 255, 255); text-decoration-thickness: initial; text-decoration-style: initial; text-decoration-color: initial; display: inline !important; float: none;&quot;&gt;Безопасность данных&lt;/span&gt;" style="rounded=0;whiteSpace=wrap;html=1;" vertex="1" parent="1">
          <mxGeometry x="280" y="200" width="160" height="80" as="geometry" />
        </mxCell>
        <mxCell id="ZNKfg5EJm-rh3dqur-UU-41" style="edgeStyle=orthogonalEdgeStyle;rounded=0;orthogonalLoop=1;jettySize=auto;html=1;exitX=0.5;exitY=1;exitDx=0;exitDy=0;entryX=0.5;entryY=0;entryDx=0;entryDy=0;" edge="1" parent="1" source="ZNKfg5EJm-rh3dqur-UU-2" target="ZNKfg5EJm-rh3dqur-UU-11">
          <mxGeometry relative="1" as="geometry" />
        </mxCell>
        <mxCell id="ZNKfg5EJm-rh3dqur-UU-42" style="edgeStyle=orthogonalEdgeStyle;rounded=0;orthogonalLoop=1;jettySize=auto;html=1;exitX=1;exitY=0.5;exitDx=0;exitDy=0;entryX=0;entryY=0.5;entryDx=0;entryDy=0;" edge="1" parent="1" source="ZNKfg5EJm-rh3dqur-UU-2" target="ZNKfg5EJm-rh3dqur-UU-5">
          <mxGeometry relative="1" as="geometry" />
        </mxCell>
        <mxCell id="ZNKfg5EJm-rh3dqur-UU-44" style="edgeStyle=orthogonalEdgeStyle;rounded=0;orthogonalLoop=1;jettySize=auto;html=1;exitX=1;exitY=1;exitDx=0;exitDy=0;entryX=0;entryY=0;entryDx=0;entryDy=0;" edge="1" parent="1" source="ZNKfg5EJm-rh3dqur-UU-2" target="ZNKfg5EJm-rh3dqur-UU-30">
          <mxGeometry relative="1" as="geometry" />
        </mxCell>
        <mxCell id="ZNKfg5EJm-rh3dqur-UU-2" value="&lt;meta charset=&quot;utf-8&quot;&gt;&lt;span style=&quot;color: rgba(0, 0, 0, 0.85); font-family: &amp;quot;YS Text&amp;quot;, sans-serif; font-size: 18px; font-style: normal; font-variant-ligatures: normal; font-variant-caps: normal; font-weight: 400; letter-spacing: normal; orphans: 2; text-align: left; text-indent: 0px; text-transform: none; widows: 2; word-spacing: 0px; -webkit-text-stroke-width: 0px; white-space: pre-line; background-color: rgb(255, 255, 255); text-decoration-thickness: initial; text-decoration-style: initial; text-decoration-color: initial; display: inline !important; float: none;&quot;&gt;конфиденциальные данные&lt;/span&gt;" style="rounded=0;whiteSpace=wrap;html=1;fillColor=#f5f5f5;strokeColor=#666666;fontColor=#333333;" vertex="1" parent="1">
          <mxGeometry x="480" y="320" width="160" height="80" as="geometry" />
        </mxCell>
        <mxCell id="ZNKfg5EJm-rh3dqur-UU-85" style="edgeStyle=orthogonalEdgeStyle;rounded=0;orthogonalLoop=1;jettySize=auto;html=1;exitX=0;exitY=0.5;exitDx=0;exitDy=0;entryX=1;entryY=0.5;entryDx=0;entryDy=0;" edge="1" parent="1" source="ZNKfg5EJm-rh3dqur-UU-3" target="ZNKfg5EJm-rh3dqur-UU-73">
          <mxGeometry relative="1" as="geometry" />
        </mxCell>
        <mxCell id="ZNKfg5EJm-rh3dqur-UU-3" value="&lt;span style=&quot;color: rgba(0, 0, 0, 0.85); font-family: &amp;quot;YS Text&amp;quot;, sans-serif; font-size: 18px; font-style: normal; font-variant-ligatures: normal; font-variant-caps: normal; font-weight: 400; letter-spacing: normal; orphans: 2; text-align: left; text-indent: 0px; text-transform: none; widows: 2; word-spacing: 0px; -webkit-text-stroke-width: 0px; white-space: pre-line; background-color: rgb(255, 255, 255); text-decoration-thickness: initial; text-decoration-style: initial; text-decoration-color: initial; float: none; display: inline !important;&quot;&gt;Платёжные данные (сделки по кв.)&lt;/span&gt;" style="rounded=0;whiteSpace=wrap;html=1;" vertex="1" parent="1">
          <mxGeometry x="-120" y="440" width="160" height="80" as="geometry" />
        </mxCell>
        <mxCell id="ZNKfg5EJm-rh3dqur-UU-70" style="edgeStyle=orthogonalEdgeStyle;rounded=0;orthogonalLoop=1;jettySize=auto;html=1;exitX=1;exitY=0.5;exitDx=0;exitDy=0;entryX=0;entryY=0.5;entryDx=0;entryDy=0;" edge="1" parent="1" source="ZNKfg5EJm-rh3dqur-UU-5" target="ZNKfg5EJm-rh3dqur-UU-14">
          <mxGeometry relative="1" as="geometry" />
        </mxCell>
        <mxCell id="ZNKfg5EJm-rh3dqur-UU-71" style="edgeStyle=orthogonalEdgeStyle;rounded=0;orthogonalLoop=1;jettySize=auto;html=1;exitX=0.5;exitY=1;exitDx=0;exitDy=0;entryX=0;entryY=0.5;entryDx=0;entryDy=0;" edge="1" parent="1" source="ZNKfg5EJm-rh3dqur-UU-5" target="ZNKfg5EJm-rh3dqur-UU-60">
          <mxGeometry relative="1" as="geometry" />
        </mxCell>
        <mxCell id="ZNKfg5EJm-rh3dqur-UU-5" value="&lt;span style=&quot;color: rgba(0, 0, 0, 0.85); font-family: &amp;quot;YS Text&amp;quot;, sans-serif; font-size: 18px; font-style: normal; font-variant-ligatures: normal; font-variant-caps: normal; font-weight: 400; letter-spacing: normal; orphans: 2; text-align: left; text-indent: 0px; text-transform: none; widows: 2; word-spacing: 0px; -webkit-text-stroke-width: 0px; white-space: pre-line; background-color: rgb(255, 255, 255); text-decoration-thickness: initial; text-decoration-style: initial; text-decoration-color: initial; float: none; display: inline !important;&quot;&gt;персональные данные клиентов&lt;/span&gt;" style="rounded=0;whiteSpace=wrap;html=1;" vertex="1" parent="1">
          <mxGeometry x="680" y="200" width="160" height="80" as="geometry" />
        </mxCell>
        <mxCell id="ZNKfg5EJm-rh3dqur-UU-39" style="edgeStyle=orthogonalEdgeStyle;rounded=0;orthogonalLoop=1;jettySize=auto;html=1;exitX=0;exitY=0.5;exitDx=0;exitDy=0;entryX=1;entryY=0.5;entryDx=0;entryDy=0;" edge="1" parent="1" source="ZNKfg5EJm-rh3dqur-UU-6" target="ZNKfg5EJm-rh3dqur-UU-3">
          <mxGeometry relative="1" as="geometry" />
        </mxCell>
        <mxCell id="ZNKfg5EJm-rh3dqur-UU-6" value="&lt;meta charset=&quot;utf-8&quot;&gt;&lt;span style=&quot;color: rgba(0, 0, 0, 0.85); font-family: &amp;quot;YS Text&amp;quot;, sans-serif; font-size: 18px; font-style: normal; font-variant-ligatures: normal; font-variant-caps: normal; font-weight: 400; letter-spacing: normal; orphans: 2; text-align: left; text-indent: 0px; text-transform: none; widows: 2; word-spacing: 0px; -webkit-text-stroke-width: 0px; white-space: pre-line; background-color: rgb(255, 255, 255); text-decoration-thickness: initial; text-decoration-style: initial; text-decoration-color: initial; display: inline !important; float: none;&quot;&gt;секретные данные&lt;/span&gt;" style="rounded=0;whiteSpace=wrap;html=1;fillColor=#f5f5f5;fontColor=#333333;strokeColor=#666666;" vertex="1" parent="1">
          <mxGeometry x="80" y="320" width="160" height="80" as="geometry" />
        </mxCell>
        <mxCell id="ZNKfg5EJm-rh3dqur-UU-38" style="edgeStyle=orthogonalEdgeStyle;rounded=0;orthogonalLoop=1;jettySize=auto;html=1;exitX=0;exitY=0.5;exitDx=0;exitDy=0;entryX=1;entryY=0.5;entryDx=0;entryDy=0;" edge="1" parent="1" source="ZNKfg5EJm-rh3dqur-UU-7" target="ZNKfg5EJm-rh3dqur-UU-9">
          <mxGeometry relative="1" as="geometry" />
        </mxCell>
        <mxCell id="ZNKfg5EJm-rh3dqur-UU-7" value="&lt;meta charset=&quot;utf-8&quot;&gt;&lt;span style=&quot;color: rgba(0, 0, 0, 0.85); font-family: &amp;quot;YS Text&amp;quot;, sans-serif; font-size: 18px; font-style: normal; font-variant-ligatures: normal; font-variant-caps: normal; font-weight: 400; letter-spacing: normal; orphans: 2; text-align: left; text-indent: 0px; text-transform: none; widows: 2; word-spacing: 0px; -webkit-text-stroke-width: 0px; white-space: pre-line; background-color: rgb(255, 255, 255); text-decoration-thickness: initial; text-decoration-style: initial; text-decoration-color: initial; display: inline !important; float: none;&quot;&gt;публичные данные&lt;/span&gt;" style="rounded=0;whiteSpace=wrap;html=1;fillColor=#f5f5f5;fontColor=#333333;strokeColor=#666666;" vertex="1" parent="1">
          <mxGeometry x="80" y="80" width="160" height="80" as="geometry" />
        </mxCell>
        <mxCell id="ZNKfg5EJm-rh3dqur-UU-40" style="edgeStyle=orthogonalEdgeStyle;rounded=0;orthogonalLoop=1;jettySize=auto;html=1;exitX=1;exitY=0.5;exitDx=0;exitDy=0;entryX=0;entryY=0.5;entryDx=0;entryDy=0;" edge="1" parent="1" source="ZNKfg5EJm-rh3dqur-UU-8" target="ZNKfg5EJm-rh3dqur-UU-12">
          <mxGeometry relative="1" as="geometry" />
        </mxCell>
        <mxCell id="ZNKfg5EJm-rh3dqur-UU-8" value="&lt;meta charset=&quot;utf-8&quot;&gt;&lt;span style=&quot;color: rgba(0, 0, 0, 0.85); font-family: &amp;quot;YS Text&amp;quot;, sans-serif; font-size: 18px; font-style: normal; font-variant-ligatures: normal; font-variant-caps: normal; font-weight: 400; letter-spacing: normal; orphans: 2; text-align: left; text-indent: 0px; text-transform: none; widows: 2; word-spacing: 0px; -webkit-text-stroke-width: 0px; white-space: pre-line; background-color: rgb(255, 255, 255); text-decoration-thickness: initial; text-decoration-style: initial; text-decoration-color: initial; display: inline !important; float: none;&quot;&gt;внутренние данные&lt;/span&gt;" style="rounded=0;whiteSpace=wrap;html=1;fillColor=#f5f5f5;strokeColor=#666666;fontColor=#333333;" vertex="1" parent="1">
          <mxGeometry x="480" y="80" width="160" height="80" as="geometry" />
        </mxCell>
        <mxCell id="ZNKfg5EJm-rh3dqur-UU-9" value="&lt;span style=&quot;color: rgba(0, 0, 0, 0.85); font-family: &amp;quot;YS Text&amp;quot;, sans-serif; font-size: 18px; text-align: left; white-space-collapse: preserve-breaks; background-color: rgb(255, 255, 255);&quot;&gt;Инфо об объектах недвижимости для витрины&lt;/span&gt;" style="rounded=0;whiteSpace=wrap;html=1;" vertex="1" parent="1">
          <mxGeometry x="-120" y="-40" width="160" height="80" as="geometry" />
        </mxCell>
        <mxCell id="ZNKfg5EJm-rh3dqur-UU-68" style="edgeStyle=orthogonalEdgeStyle;rounded=0;orthogonalLoop=1;jettySize=auto;html=1;exitX=0.5;exitY=1;exitDx=0;exitDy=0;entryX=0.5;entryY=0;entryDx=0;entryDy=0;" edge="1" parent="1" source="ZNKfg5EJm-rh3dqur-UU-11" target="ZNKfg5EJm-rh3dqur-UU-57">
          <mxGeometry relative="1" as="geometry" />
        </mxCell>
        <mxCell id="ZNKfg5EJm-rh3dqur-UU-11" value="&lt;span style=&quot;color: rgba(0, 0, 0, 0.85); font-family: &amp;quot;YS Text&amp;quot;, sans-serif; font-size: 18px; font-style: normal; font-variant-ligatures: normal; font-variant-caps: normal; font-weight: 400; letter-spacing: normal; orphans: 2; text-align: start; text-indent: 0px; text-transform: none; widows: 2; word-spacing: 0px; -webkit-text-stroke-width: 0px; white-space: pre-wrap; background-color: rgb(255, 255, 255); text-decoration-thickness: initial; text-decoration-style: initial; text-decoration-color: initial; float: none; display: inline !important;&quot;&gt;ЖКХ платёжная инфо&lt;/span&gt;" style="rounded=0;whiteSpace=wrap;html=1;" vertex="1" parent="1">
          <mxGeometry x="280" y="440" width="160" height="80" as="geometry" />
        </mxCell>
        <mxCell id="ZNKfg5EJm-rh3dqur-UU-72" style="edgeStyle=orthogonalEdgeStyle;rounded=0;orthogonalLoop=1;jettySize=auto;html=1;exitX=1;exitY=0.5;exitDx=0;exitDy=0;entryX=0;entryY=0.5;entryDx=0;entryDy=0;" edge="1" parent="1" source="ZNKfg5EJm-rh3dqur-UU-12" target="ZNKfg5EJm-rh3dqur-UU-47">
          <mxGeometry relative="1" as="geometry" />
        </mxCell>
        <mxCell id="ZNKfg5EJm-rh3dqur-UU-12" value="&lt;span style=&quot;color: rgba(0, 0, 0, 0.85); font-family: &amp;quot;YS Text&amp;quot;, sans-serif; font-size: 18px; text-align: left; white-space-collapse: preserve-breaks; background-color: rgb(255, 255, 255);&quot;&gt;Отчётность&lt;/span&gt;" style="rounded=0;whiteSpace=wrap;html=1;" vertex="1" parent="1">
          <mxGeometry x="680" y="-40" width="160" height="80" as="geometry" />
        </mxCell>
        <mxCell id="ZNKfg5EJm-rh3dqur-UU-78" style="edgeStyle=orthogonalEdgeStyle;rounded=0;orthogonalLoop=1;jettySize=auto;html=1;exitX=1;exitY=0.5;exitDx=0;exitDy=0;entryX=0;entryY=0.5;entryDx=0;entryDy=0;" edge="1" parent="1" source="ZNKfg5EJm-rh3dqur-UU-14" target="ZNKfg5EJm-rh3dqur-UU-76">
          <mxGeometry relative="1" as="geometry" />
        </mxCell>
        <mxCell id="ZNKfg5EJm-rh3dqur-UU-14" value="&lt;meta charset=&quot;utf-8&quot;&gt;&lt;span style=&quot;color: rgba(0, 0, 0, 0.85); font-family: &amp;quot;YS Text&amp;quot;, sans-serif; font-size: 18px; font-style: normal; font-variant-ligatures: normal; font-variant-caps: normal; font-weight: 400; letter-spacing: normal; orphans: 2; text-align: left; text-indent: 0px; text-transform: none; widows: 2; word-spacing: 0px; -webkit-text-stroke-width: 0px; white-space: pre-line; background-color: rgb(255, 255, 255); text-decoration-thickness: initial; text-decoration-style: initial; text-decoration-color: initial; display: inline !important; float: none;&quot;&gt;утечка данных&lt;/span&gt;" style="rounded=0;whiteSpace=wrap;html=1;fillColor=#f5f5f5;fontColor=#333333;strokeColor=#666666;" vertex="1" parent="1">
          <mxGeometry x="880" y="200" width="160" height="80" as="geometry" />
        </mxCell>
        <mxCell id="ZNKfg5EJm-rh3dqur-UU-15" value="&lt;meta charset=&quot;utf-8&quot;&gt;&lt;span style=&quot;color: rgba(0, 0, 0, 0.85); font-family: &amp;quot;YS Text&amp;quot;, sans-serif; font-size: 18px; font-style: normal; font-variant-ligatures: normal; font-variant-caps: normal; font-weight: 400; letter-spacing: normal; orphans: 2; text-align: start; text-indent: 0px; text-transform: none; widows: 2; word-spacing: 0px; -webkit-text-stroke-width: 0px; white-space: pre-wrap; background-color: rgb(255, 255, 255); text-decoration-thickness: initial; text-decoration-style: initial; text-decoration-color: initial; display: inline !important; float: none;&quot;&gt;критический&lt;/span&gt;" style="rounded=0;whiteSpace=wrap;html=1;" vertex="1" parent="1">
          <mxGeometry x="1080" y="320" width="160" height="80" as="geometry" />
        </mxCell>
        <mxCell id="ZNKfg5EJm-rh3dqur-UU-27" value="&lt;meta charset=&quot;utf-8&quot;&gt;&lt;span style=&quot;color: rgba(0, 0, 0, 0.85); font-family: &amp;quot;YS Text&amp;quot;, sans-serif; font-size: 18px; font-style: normal; font-variant-ligatures: normal; font-variant-caps: normal; font-weight: 400; letter-spacing: normal; orphans: 2; text-align: start; text-indent: 0px; text-transform: none; widows: 2; word-spacing: 0px; -webkit-text-stroke-width: 0px; white-space: pre-wrap; background-color: rgb(255, 255, 255); text-decoration-thickness: initial; text-decoration-style: initial; text-decoration-color: initial; display: inline !important; float: none;&quot;&gt;незначительный&lt;/span&gt;" style="rounded=0;whiteSpace=wrap;html=1;" vertex="1" parent="1">
          <mxGeometry x="1080" y="-40" width="160" height="80" as="geometry" />
        </mxCell>
        <mxCell id="ZNKfg5EJm-rh3dqur-UU-28" value="&lt;meta charset=&quot;utf-8&quot;&gt;&lt;span style=&quot;color: rgba(0, 0, 0, 0.85); font-family: &amp;quot;YS Text&amp;quot;, sans-serif; font-size: 18px; font-style: normal; font-variant-ligatures: normal; font-variant-caps: normal; font-weight: 400; letter-spacing: normal; orphans: 2; text-align: start; text-indent: 0px; text-transform: none; widows: 2; word-spacing: 0px; -webkit-text-stroke-width: 0px; white-space: pre-wrap; background-color: rgb(255, 255, 255); text-decoration-thickness: initial; text-decoration-style: initial; text-decoration-color: initial; display: inline !important; float: none;&quot;&gt;значительный&lt;/span&gt;" style="rounded=0;whiteSpace=wrap;html=1;" vertex="1" parent="1">
          <mxGeometry x="280" y="680" width="160" height="80" as="geometry" />
        </mxCell>
        <mxCell id="ZNKfg5EJm-rh3dqur-UU-64" style="edgeStyle=orthogonalEdgeStyle;rounded=0;orthogonalLoop=1;jettySize=auto;html=1;exitX=0.5;exitY=1;exitDx=0;exitDy=0;" edge="1" parent="1" source="ZNKfg5EJm-rh3dqur-UU-30" target="ZNKfg5EJm-rh3dqur-UU-58">
          <mxGeometry relative="1" as="geometry" />
        </mxCell>
        <mxCell id="ZNKfg5EJm-rh3dqur-UU-65" style="edgeStyle=orthogonalEdgeStyle;rounded=0;orthogonalLoop=1;jettySize=auto;html=1;exitX=1;exitY=0.5;exitDx=0;exitDy=0;entryX=0;entryY=0.5;entryDx=0;entryDy=0;" edge="1" parent="1" source="ZNKfg5EJm-rh3dqur-UU-30" target="ZNKfg5EJm-rh3dqur-UU-59">
          <mxGeometry relative="1" as="geometry" />
        </mxCell>
        <mxCell id="ZNKfg5EJm-rh3dqur-UU-30" value="&lt;span style=&quot;color: rgba(0, 0, 0, 0.85); font-family: &amp;quot;YS Text&amp;quot;, sans-serif; font-size: 18px; font-style: normal; font-variant-ligatures: normal; font-variant-caps: normal; font-weight: 400; letter-spacing: normal; orphans: 2; text-align: left; text-indent: 0px; text-transform: none; widows: 2; word-spacing: 0px; -webkit-text-stroke-width: 0px; white-space: pre-line; background-color: rgb(255, 255, 255); text-decoration-thickness: initial; text-decoration-style: initial; text-decoration-color: initial; float: none; display: inline !important;&quot;&gt;персональные данные собственников&lt;/span&gt;" style="rounded=0;whiteSpace=wrap;html=1;" vertex="1" parent="1">
          <mxGeometry x="680" y="440" width="160" height="80" as="geometry" />
        </mxCell>
        <mxCell id="ZNKfg5EJm-rh3dqur-UU-77" style="edgeStyle=orthogonalEdgeStyle;rounded=0;orthogonalLoop=1;jettySize=auto;html=1;exitX=1;exitY=0.5;exitDx=0;exitDy=0;" edge="1" parent="1" source="ZNKfg5EJm-rh3dqur-UU-47" target="ZNKfg5EJm-rh3dqur-UU-27">
          <mxGeometry relative="1" as="geometry" />
        </mxCell>
        <mxCell id="ZNKfg5EJm-rh3dqur-UU-47" value="&lt;meta charset=&quot;utf-8&quot;&gt;&lt;span style=&quot;color: rgba(0, 0, 0, 0.85); font-family: &amp;quot;YS Text&amp;quot;, sans-serif; font-size: 18px; font-style: normal; font-variant-ligatures: normal; font-variant-caps: normal; font-weight: 400; letter-spacing: normal; orphans: 2; text-align: left; text-indent: 0px; text-transform: none; widows: 2; word-spacing: 0px; -webkit-text-stroke-width: 0px; white-space: pre-line; background-color: rgb(255, 255, 255); text-decoration-thickness: initial; text-decoration-style: initial; text-decoration-color: initial; display: inline !important; float: none;&quot;&gt;утечка данных&lt;/span&gt;" style="rounded=0;whiteSpace=wrap;html=1;fillColor=#f5f5f5;fontColor=#333333;strokeColor=#666666;" vertex="1" parent="1">
          <mxGeometry x="880" y="-40" width="160" height="80" as="geometry" />
        </mxCell>
        <mxCell id="ZNKfg5EJm-rh3dqur-UU-82" style="edgeStyle=orthogonalEdgeStyle;rounded=0;orthogonalLoop=1;jettySize=auto;html=1;exitX=0.5;exitY=1;exitDx=0;exitDy=0;entryX=0.5;entryY=0;entryDx=0;entryDy=0;" edge="1" parent="1" source="ZNKfg5EJm-rh3dqur-UU-57" target="ZNKfg5EJm-rh3dqur-UU-28">
          <mxGeometry relative="1" as="geometry" />
        </mxCell>
        <mxCell id="ZNKfg5EJm-rh3dqur-UU-57" value="&lt;meta charset=&quot;utf-8&quot;&gt;&lt;span style=&quot;color: rgba(0, 0, 0, 0.85); font-family: &amp;quot;YS Text&amp;quot;, sans-serif; font-size: 18px; font-style: normal; font-variant-ligatures: normal; font-variant-caps: normal; font-weight: 400; letter-spacing: normal; orphans: 2; text-align: left; text-indent: 0px; text-transform: none; widows: 2; word-spacing: 0px; -webkit-text-stroke-width: 0px; white-space: pre-line; background-color: rgb(255, 255, 255); text-decoration-thickness: initial; text-decoration-style: initial; text-decoration-color: initial; display: inline !important; float: none;&quot;&gt;утечка данных&lt;/span&gt;" style="rounded=0;whiteSpace=wrap;html=1;fillColor=#f5f5f5;fontColor=#333333;strokeColor=#666666;" vertex="1" parent="1">
          <mxGeometry x="280" y="560" width="160" height="80" as="geometry" />
        </mxCell>
        <mxCell id="ZNKfg5EJm-rh3dqur-UU-81" style="edgeStyle=orthogonalEdgeStyle;rounded=0;orthogonalLoop=1;jettySize=auto;html=1;exitX=0.5;exitY=1;exitDx=0;exitDy=0;entryX=0.5;entryY=0;entryDx=0;entryDy=0;" edge="1" parent="1" source="ZNKfg5EJm-rh3dqur-UU-58" target="ZNKfg5EJm-rh3dqur-UU-74">
          <mxGeometry relative="1" as="geometry" />
        </mxCell>
        <mxCell id="ZNKfg5EJm-rh3dqur-UU-58" value="&lt;meta charset=&quot;utf-8&quot;&gt;&lt;span style=&quot;color: rgba(0, 0, 0, 0.85); font-family: &amp;quot;YS Text&amp;quot;, sans-serif; font-size: 18px; font-style: normal; font-variant-ligatures: normal; font-variant-caps: normal; font-weight: 400; letter-spacing: normal; orphans: 2; text-align: left; text-indent: 0px; text-transform: none; widows: 2; word-spacing: 0px; -webkit-text-stroke-width: 0px; white-space: pre-line; background-color: rgb(255, 255, 255); text-decoration-thickness: initial; text-decoration-style: initial; text-decoration-color: initial; display: inline !important; float: none;&quot;&gt;искажение данных&lt;/span&gt;" style="rounded=0;whiteSpace=wrap;html=1;fillColor=#f5f5f5;fontColor=#333333;strokeColor=#666666;" vertex="1" parent="1">
          <mxGeometry x="680" y="560" width="160" height="80" as="geometry" />
        </mxCell>
        <mxCell id="ZNKfg5EJm-rh3dqur-UU-80" style="edgeStyle=orthogonalEdgeStyle;rounded=0;orthogonalLoop=1;jettySize=auto;html=1;exitX=1;exitY=0.5;exitDx=0;exitDy=0;entryX=0;entryY=0.5;entryDx=0;entryDy=0;" edge="1" parent="1" source="ZNKfg5EJm-rh3dqur-UU-59" target="ZNKfg5EJm-rh3dqur-UU-75">
          <mxGeometry relative="1" as="geometry" />
        </mxCell>
        <mxCell id="ZNKfg5EJm-rh3dqur-UU-59" value="&lt;meta charset=&quot;utf-8&quot;&gt;&lt;span style=&quot;color: rgba(0, 0, 0, 0.85); font-family: &amp;quot;YS Text&amp;quot;, sans-serif; font-size: 18px; font-style: normal; font-variant-ligatures: normal; font-variant-caps: normal; font-weight: 400; letter-spacing: normal; orphans: 2; text-align: left; text-indent: 0px; text-transform: none; widows: 2; word-spacing: 0px; -webkit-text-stroke-width: 0px; white-space: pre-line; background-color: rgb(255, 255, 255); text-decoration-thickness: initial; text-decoration-style: initial; text-decoration-color: initial; display: inline !important; float: none;&quot;&gt;утечка данных&lt;/span&gt;" style="rounded=0;whiteSpace=wrap;html=1;fillColor=#f5f5f5;fontColor=#333333;strokeColor=#666666;" vertex="1" parent="1">
          <mxGeometry x="880" y="440" width="160" height="80" as="geometry" />
        </mxCell>
        <mxCell id="ZNKfg5EJm-rh3dqur-UU-79" style="edgeStyle=orthogonalEdgeStyle;rounded=0;orthogonalLoop=1;jettySize=auto;html=1;exitX=1;exitY=0.5;exitDx=0;exitDy=0;entryX=0;entryY=0.5;entryDx=0;entryDy=0;" edge="1" parent="1" source="ZNKfg5EJm-rh3dqur-UU-60" target="ZNKfg5EJm-rh3dqur-UU-15">
          <mxGeometry relative="1" as="geometry" />
        </mxCell>
        <mxCell id="ZNKfg5EJm-rh3dqur-UU-60" value="&lt;meta charset=&quot;utf-8&quot;&gt;&lt;span style=&quot;color: rgba(0, 0, 0, 0.85); font-family: &amp;quot;YS Text&amp;quot;, sans-serif; font-size: 18px; font-style: normal; font-variant-ligatures: normal; font-variant-caps: normal; font-weight: 400; letter-spacing: normal; orphans: 2; text-align: left; text-indent: 0px; text-transform: none; widows: 2; word-spacing: 0px; -webkit-text-stroke-width: 0px; white-space: pre-line; background-color: rgb(255, 255, 255); text-decoration-thickness: initial; text-decoration-style: initial; text-decoration-color: initial; display: inline !important; float: none;&quot;&gt;искажение данных&lt;/span&gt;" style="rounded=0;whiteSpace=wrap;html=1;fillColor=#f5f5f5;fontColor=#333333;strokeColor=#666666;" vertex="1" parent="1">
          <mxGeometry x="880" y="320" width="160" height="80" as="geometry" />
        </mxCell>
        <mxCell id="ZNKfg5EJm-rh3dqur-UU-84" style="edgeStyle=orthogonalEdgeStyle;rounded=0;orthogonalLoop=1;jettySize=auto;html=1;exitX=0;exitY=0.5;exitDx=0;exitDy=0;entryX=1;entryY=0.5;entryDx=0;entryDy=0;" edge="1" parent="1" source="ZNKfg5EJm-rh3dqur-UU-73" target="ZNKfg5EJm-rh3dqur-UU-83">
          <mxGeometry relative="1" as="geometry" />
        </mxCell>
        <mxCell id="ZNKfg5EJm-rh3dqur-UU-73" value="&lt;meta charset=&quot;utf-8&quot;&gt;&lt;span style=&quot;color: rgba(0, 0, 0, 0.85); font-family: &amp;quot;YS Text&amp;quot;, sans-serif; font-size: 18px; font-style: normal; font-variant-ligatures: normal; font-variant-caps: normal; font-weight: 400; letter-spacing: normal; orphans: 2; text-align: left; text-indent: 0px; text-transform: none; widows: 2; word-spacing: 0px; -webkit-text-stroke-width: 0px; white-space: pre-line; background-color: rgb(255, 255, 255); text-decoration-thickness: initial; text-decoration-style: initial; text-decoration-color: initial; display: inline !important; float: none;&quot;&gt;утечка данных&lt;/span&gt;" style="rounded=0;whiteSpace=wrap;html=1;fillColor=#f5f5f5;fontColor=#333333;strokeColor=#666666;" vertex="1" parent="1">
          <mxGeometry x="-320" y="440" width="160" height="80" as="geometry" />
        </mxCell>
        <mxCell id="ZNKfg5EJm-rh3dqur-UU-74" value="&lt;meta charset=&quot;utf-8&quot;&gt;&lt;span style=&quot;color: rgba(0, 0, 0, 0.85); font-family: &amp;quot;YS Text&amp;quot;, sans-serif; font-size: 18px; font-style: normal; font-variant-ligatures: normal; font-variant-caps: normal; font-weight: 400; letter-spacing: normal; orphans: 2; text-align: start; text-indent: 0px; text-transform: none; widows: 2; word-spacing: 0px; -webkit-text-stroke-width: 0px; white-space: pre-wrap; background-color: rgb(255, 255, 255); text-decoration-thickness: initial; text-decoration-style: initial; text-decoration-color: initial; display: inline !important; float: none;&quot;&gt;критический&lt;/span&gt;" style="rounded=0;whiteSpace=wrap;html=1;" vertex="1" parent="1">
          <mxGeometry x="680" y="680" width="160" height="80" as="geometry" />
        </mxCell>
        <mxCell id="ZNKfg5EJm-rh3dqur-UU-75" value="&lt;meta charset=&quot;utf-8&quot;&gt;&lt;span style=&quot;color: rgba(0, 0, 0, 0.85); font-family: &amp;quot;YS Text&amp;quot;, sans-serif; font-size: 18px; font-style: normal; font-variant-ligatures: normal; font-variant-caps: normal; font-weight: 400; letter-spacing: normal; orphans: 2; text-align: start; text-indent: 0px; text-transform: none; widows: 2; word-spacing: 0px; -webkit-text-stroke-width: 0px; white-space: pre-wrap; background-color: rgb(255, 255, 255); text-decoration-thickness: initial; text-decoration-style: initial; text-decoration-color: initial; display: inline !important; float: none;&quot;&gt;значительный&lt;/span&gt;" style="rounded=0;whiteSpace=wrap;html=1;" vertex="1" parent="1">
          <mxGeometry x="1080" y="440" width="160" height="80" as="geometry" />
        </mxCell>
        <mxCell id="ZNKfg5EJm-rh3dqur-UU-76" value="&lt;meta charset=&quot;utf-8&quot;&gt;&lt;span style=&quot;color: rgba(0, 0, 0, 0.85); font-family: &amp;quot;YS Text&amp;quot;, sans-serif; font-size: 18px; font-style: normal; font-variant-ligatures: normal; font-variant-caps: normal; font-weight: 400; letter-spacing: normal; orphans: 2; text-align: start; text-indent: 0px; text-transform: none; widows: 2; word-spacing: 0px; -webkit-text-stroke-width: 0px; white-space: pre-wrap; background-color: rgb(255, 255, 255); text-decoration-thickness: initial; text-decoration-style: initial; text-decoration-color: initial; display: inline !important; float: none;&quot;&gt;значительный&lt;/span&gt;" style="rounded=0;whiteSpace=wrap;html=1;" vertex="1" parent="1">
          <mxGeometry x="1080" y="200" width="160" height="80" as="geometry" />
        </mxCell>
        <mxCell id="ZNKfg5EJm-rh3dqur-UU-83" value="&lt;meta charset=&quot;utf-8&quot;&gt;&lt;span style=&quot;color: rgba(0, 0, 0, 0.85); font-family: &amp;quot;YS Text&amp;quot;, sans-serif; font-size: 18px; font-style: normal; font-variant-ligatures: normal; font-variant-caps: normal; font-weight: 400; letter-spacing: normal; orphans: 2; text-align: start; text-indent: 0px; text-transform: none; widows: 2; word-spacing: 0px; -webkit-text-stroke-width: 0px; white-space: pre-wrap; background-color: rgb(255, 255, 255); text-decoration-thickness: initial; text-decoration-style: initial; text-decoration-color: initial; display: inline !important; float: none;&quot;&gt;критический&lt;/span&gt;" style="rounded=0;whiteSpace=wrap;html=1;" vertex="1" parent="1">
          <mxGeometry x="-520" y="440" width="160" height="80" as="geometry" />
        </mxCell>
      </root>
    </mxGraphModel>
  </diagram>
</mxfile>
